<svg xmlns="http://www.w3.org/2000/svg" xmlns:xlink="http://www.w3.org/1999/xlink" width="230" zoomAndPan="magnify" viewBox="0 0 172.5 146.249994" height="195" preserveAspectRatio="xMidYMid meet" version="1.0"><defs><g/><clipPath id="id1"><path d="M 0.191406 20 L 170.8125 20 L 170.8125 140 L 0.191406 140 Z M 0.191406 20 " clip-rule="nonzero"/></clipPath><clipPath id="id2"><path d="M 0.191406 17 L 170.8125 17 L 170.8125 143 L 0.191406 143 Z M 0.191406 17 " clip-rule="nonzero"/></clipPath><clipPath id="id3"><path d="M 0.191406 19 L 170.8125 19 L 170.8125 140 L 0.191406 140 Z M 0.191406 19 " clip-rule="nonzero"/></clipPath><clipPath id="id4"><path d="M 118 8 L 170.8125 8 L 170.8125 49 L 118 49 Z M 118 8 " clip-rule="nonzero"/></clipPath><clipPath id="id5"><path d="M 117 14 L 170.8125 14 L 170.8125 55 L 117 55 Z M 117 14 " clip-rule="nonzero"/></clipPath><clipPath id="id6"><path d="M 115 20 L 170.8125 20 L 170.8125 61 L 115 61 Z M 115 20 " clip-rule="nonzero"/></clipPath><clipPath id="id7"><path d="M 113 26 L 170.8125 26 L 170.8125 67 L 113 67 Z M 113 26 " clip-rule="nonzero"/></clipPath><clipPath id="id8"><path d="M 109 32 L 170.8125 32 L 170.8125 73 L 109 73 Z M 109 32 " clip-rule="nonzero"/></clipPath><clipPath id="id9"><path d="M 0.191406 39 L 37 39 L 37 79 L 0.191406 79 Z M 0.191406 39 " clip-rule="nonzero"/></clipPath></defs><path stroke-linecap="butt" transform="matrix(0.438044, 0, 0, 0.439605, -3.618371, 15.143224)" fill-opacity="1" fill="#004aad" fill-rule="evenodd" stroke-linejoin="miter" d="M 21.734613 253.213451 L 109.562929 273.588649 L 110.044473 277.471755 L 17.855507 262.916773 Z M 21.734613 253.213451 " stroke="#000000" stroke-width="1" stroke-opacity="1" stroke-miterlimit="4"/><g clip-path="url(#id1)"><path fill="#004aad" d="M 0.589844 139.601562 L 63.816406 139.203125 C 92.480469 -6.097656 152.191406 152.65625 170.398438 20.683594 L 137.519531 21.878906 C 134.613281 113.015625 46.472656 -10.488281 0.589844 139.597656 Z M 0.589844 139.601562 " fill-opacity="1" fill-rule="evenodd"/></g><g clip-path="url(#id2)"><path stroke-linecap="butt" transform="matrix(0.438044, 0, 0, 0.439605, -3.618371, 15.143224)" fill="none" stroke-linejoin="miter" d="M 9.606833 283.114254 L 153.945255 282.207899 C 219.381764 -48.318144 355.694449 312.810682 397.25885 12.603074 L 322.200373 15.322137 C 315.565764 222.637327 114.351619 -58.305812 9.606833 283.105368 Z M 9.606833 283.114254 " stroke="#000000" stroke-width="1.209" stroke-opacity="1" stroke-miterlimit="4"/></g><path fill="#ffffff" d="M 3.34375 136.40625 L 61.457031 136.242188 C 92.84375 -6.140625 150.503906 148.644531 168.277344 22.808594 L 139.15625 23.730469 C 135.257812 112.769531 47.929688 -5.636719 3.34375 136.410156 Z M 3.34375 136.40625 " fill-opacity="1" fill-rule="evenodd"/><g clip-path="url(#id3)"><path stroke-linecap="butt" transform="matrix(0.438044, 0, 0, 0.439605, -3.618371, 15.143224)" fill="none" stroke-linejoin="miter" d="M 15.89366 275.845649 L 148.559094 275.472444 C 220.211091 -48.415888 351.842096 303.684939 392.416655 17.436963 L 325.9368 19.534018 C 317.037149 222.07752 117.677841 -47.269617 15.89366 275.854534 Z M 15.89366 275.845649 " stroke="#000000" stroke-width="1.167" stroke-opacity="1" stroke-miterlimit="4"/></g><path stroke-linecap="butt" transform="matrix(0.438044, 0, 0, 0.439605, -3.618371, 15.143224)" fill-opacity="1" fill="#004aad" fill-rule="evenodd" stroke-linejoin="miter" d="M 21.654356 277.37401 L 139.98939 276.041137 C 207.86929 -52.26345 353.81286 291.95565 388.100592 16.406207 L 330.51147 17.454735 C 318.954409 233.424719 127.112541 -44.168464 21.654356 277.37401 Z M 21.654356 277.37401 " stroke="#000000" stroke-width="1.049" stroke-opacity="1" stroke-miterlimit="4"/><g clip-path="url(#id4)"><path stroke-linecap="butt" transform="matrix(0.438044, 0, 0, 0.439605, -3.618371, 15.143224)" fill="none" stroke-linejoin="miter" d="M 323.047534 30.010406 L 391.462484 29.530571 " stroke="#000000" stroke-width="8" stroke-opacity="1" stroke-miterlimit="4"/></g><g clip-path="url(#id5)"><path stroke-linecap="butt" transform="matrix(0.438044, 0, 0, 0.439605, -4.468614, 21.328899)" fill="none" stroke-linejoin="miter" d="M 323.05344 30.014558 L 391.46839 29.525838 " stroke="#000000" stroke-width="8" stroke-opacity="1" stroke-miterlimit="4"/></g><g clip-path="url(#id6)"><path stroke-linecap="butt" transform="matrix(0.438044, 0, 0, 0.439605, -5.956211, 27.514578)" fill="none" stroke-linejoin="miter" d="M 323.051879 30.009814 L 391.466828 29.52998 " stroke="#000000" stroke-width="8" stroke-opacity="1" stroke-miterlimit="4"/></g><g clip-path="url(#id7)"><path stroke-linecap="butt" transform="matrix(0.451974, 0, 0, 0.439605, -12.466298, 33.700253)" fill="none" stroke-linejoin="miter" d="M 323.048175 30.013964 L 391.46339 29.525244 " stroke="#000000" stroke-width="8" stroke-opacity="1" stroke-miterlimit="4"/></g><g clip-path="url(#id8)"><path stroke-linecap="butt" transform="matrix(0.468576, 0.0070029, -0.00746427, 0.439547, -20.769931, 37.202058)" fill="none" stroke-linejoin="miter" d="M 323.049021 30.012481 L 391.466755 29.52676 " stroke="#000000" stroke-width="8" stroke-opacity="1" stroke-miterlimit="4"/></g><path stroke-linecap="butt" transform="matrix(0.438044, 0, 0, 0.439605, -3.618371, 15.143224)" fill-opacity="1" fill="#004aad" fill-rule="evenodd" stroke-linejoin="miter" d="M 233.765669 101.81676 L 347.312013 134.809829 L 352.644669 130.446889 L 242.986349 101.336926 Z M 233.765669 101.81676 " stroke="#000000" stroke-width="1" stroke-opacity="1" stroke-miterlimit="4"/><path stroke-linecap="butt" transform="matrix(0.438044, 0, 0, 0.439605, -3.618371, 15.143224)" fill-opacity="1" fill="#004aad" fill-rule="evenodd" stroke-linejoin="miter" d="M 260.937247 102.314366 L 361.856432 124.146839 L 364.77245 118.07782 L 269.185921 101.825646 Z M 260.937247 102.314366 " stroke="#000000" stroke-width="1" stroke-opacity="1" stroke-miterlimit="4"/><path stroke-linecap="butt" transform="matrix(0.438044, 0, 0, 0.439605, -3.618371, 15.143224)" fill-opacity="1" fill="#004aad" fill-rule="evenodd" stroke-linejoin="miter" d="M 283.400393 99.781906 L 371.121699 108.205669 L 375.928224 99.035497 L 297.579196 95.241249 Z M 283.400393 99.781906 " stroke="#000000" stroke-width="1" stroke-opacity="1" stroke-miterlimit="4"/><path stroke-linecap="butt" transform="matrix(0.438044, 0, 0, 0.439605, -3.618371, 15.143224)" fill-opacity="1" fill="#004aad" fill-rule="evenodd" stroke-linejoin="miter" d="M 227.951468 103.522839 L 332.268215 141.367569 L 340.757661 139.670376 L 232.80258 102.794201 Z M 227.951468 103.522839 " stroke="#000000" stroke-width="1" stroke-opacity="1" stroke-miterlimit="4"/><path stroke-linecap="butt" transform="matrix(0.438044, 0, 0, 0.439605, -3.618371, 15.143224)" fill-opacity="1" fill="#004aad" fill-rule="evenodd" stroke-linejoin="miter" d="M 154.435717 104.980114 L 248.087151 128.269862 L 257.058141 128.029945 L 160.990069 103.522839 Z M 154.435717 104.980114 " stroke="#000000" stroke-width="1" stroke-opacity="1" stroke-miterlimit="4"/><path stroke-linecap="butt" transform="matrix(0.438044, 0, 0, 0.439605, -3.618371, 15.143224)" fill-opacity="1" fill="#004aad" fill-rule="evenodd" stroke-linejoin="miter" d="M 182.828991 101.576843 L 269.685301 129.967055 L 285.692187 134.329995 L 192.049671 100.848205 Z M 182.828991 101.576843 " stroke="#000000" stroke-width="1" stroke-opacity="1" stroke-miterlimit="4"/><path stroke-linecap="butt" transform="matrix(0.438044, 0, 0, 0.439605, -3.618371, 15.143224)" fill-opacity="1" fill="#004aad" fill-rule="evenodd" stroke-linejoin="miter" d="M 207.093469 101.576843 L 301.948764 137.484463 L 320.381206 140.638931 L 211.213348 101.336926 Z M 207.093469 101.576843 " stroke="#000000" stroke-width="1" stroke-opacity="1" stroke-miterlimit="4"/><path stroke-linecap="butt" transform="matrix(0.438044, 0, 0, 0.439605, -3.618371, 15.143224)" fill-opacity="1" fill="#004aad" fill-rule="evenodd" stroke-linejoin="miter" d="M 235.228136 130.93561 L 145.955188 107.166027 L 133.81849 110.560412 L 221.646806 135.307436 Z M 235.228136 130.93561 " stroke="#000000" stroke-width="1" stroke-opacity="1" stroke-miterlimit="4"/><path stroke-linecap="butt" transform="matrix(0.438044, 0, 0, 0.439605, -3.618371, 15.143224)" fill-opacity="1" fill="#004aad" fill-rule="evenodd" stroke-linejoin="miter" d="M 214.36122 140.638931 L 126.05136 113.466077 L 112.951574 120.263733 L 206.112546 145.979312 Z M 214.36122 140.638931 " stroke="#000000" stroke-width="1" stroke-opacity="1" stroke-miterlimit="4"/><path stroke-linecap="butt" transform="matrix(0.438044, 0, 0, 0.439605, -3.618371, 15.143224)" fill-opacity="1" fill="#004aad" fill-rule="evenodd" stroke-linejoin="miter" d="M 199.317422 152.768082 L 107.618917 126.572669 L 99.370243 130.446889 L 191.068748 158.108463 Z M 199.317422 152.768082 " stroke="#000000" stroke-width="1" stroke-opacity="1" stroke-miterlimit="4"/><path stroke-linecap="butt" transform="matrix(0.438044, 0, 0, 0.439605, -3.618371, 15.143224)" fill-opacity="1" fill="#004aad" fill-rule="evenodd" stroke-linejoin="miter" d="M 188.161647 167.33195 L 87.724007 139.190541 L 82.863977 145.499477 L 185.245629 173.152166 Z M 188.161647 167.33195 " stroke="#000000" stroke-width="1" stroke-opacity="1" stroke-miterlimit="4"/><path stroke-linecap="butt" transform="matrix(0.438044, 0, 0, 0.439605, -3.618371, 15.143224)" fill-opacity="1" fill="#004aad" fill-rule="evenodd" stroke-linejoin="miter" d="M 74.142676 156.171353 L 177.487417 183.824042 L 176.033867 192.078973 L 66.866008 161.991569 Z M 74.142676 156.171353 " stroke="#000000" stroke-width="1" stroke-opacity="1" stroke-miterlimit="4"/><path stroke-linecap="butt" transform="matrix(0.438044, 0, 0, 0.439605, -3.618371, 15.143224)" fill-opacity="1" fill="#004aad" fill-rule="evenodd" stroke-linejoin="miter" d="M 62.49644 170.717449 L 170.210749 204.68796 L 166.822104 215.359836 L 57.645328 178.972381 Z M 62.49644 170.717449 " stroke="#000000" stroke-width="1" stroke-opacity="1" stroke-miterlimit="4"/><path stroke-linecap="butt" transform="matrix(0.438044, 0, 0, 0.439605, -3.618371, 15.143224)" fill-opacity="1" fill="#004aad" fill-rule="evenodd" stroke-linejoin="miter" d="M 49.878198 191.590253 L 160.018063 227.977708 L 157.592507 238.169749 L 44.545542 198.867744 Z M 49.878198 191.590253 " stroke="#000000" stroke-width="1" stroke-opacity="1" stroke-miterlimit="4"/><path stroke-linecap="butt" transform="matrix(0.438044, 0, 0, 0.439605, -3.618371, 15.143224)" fill-opacity="1" fill="#004aad" fill-rule="evenodd" stroke-linejoin="miter" d="M 38.231962 210.996896 C 77.049777 225.072043 115.867591 246.975602 154.685406 253.213451 L 153.7134 260.979663 C 105.844338 253.160137 74.784735 234.126699 35.324861 220.700217 Z M 38.231962 210.996896 " stroke="#000000" stroke-width="1" stroke-opacity="1" stroke-miterlimit="4"/><path stroke-linecap="butt" transform="matrix(0.438044, 0, 0, 0.439605, -3.618371, 15.143224)" fill-opacity="1" fill="#004aad" fill-rule="evenodd" stroke-linejoin="miter" d="M 29.983288 232.340648 C 70.094138 246.246964 101.679872 268.683673 150.315838 274.068483 L 150.315838 277.951589 L 26.104181 242.532689 L 29.992205 232.340648 Z M 29.983288 232.340648 " stroke="#000000" stroke-width="1" stroke-opacity="1" stroke-miterlimit="4"/><path stroke-linecap="butt" transform="matrix(0.438044, 0, 0, 0.439605, -3.618371, 15.143224)" fill="none" stroke-linejoin="miter" d="M 27.557732 276.5032 L 136.734508 275.525759 C 139.284909 255.994715 143.101592 241.493048 146.918276 227.009153 L 47.452642 223.614767 C 39.899532 237.565513 33.880229 257.638592 27.557732 276.5032 Z M 27.557732 276.5032 " stroke="#ffffff" stroke-width="1" stroke-opacity="0.9412" stroke-miterlimit="4"/><path stroke-linecap="butt" transform="matrix(0.438044, 0, 0, 0.439605, -3.618371, 15.143224)" fill="none" stroke-linejoin="miter" d="M 51.331748 216.328391 L 148.862288 219.242941 C 153.766905 202.448732 160.802801 186.720821 168.266737 171.20617 L 82.872895 163.928679 C 65.260861 187.609403 58.991868 201.355775 51.331748 216.328391 Z M 51.331748 216.328391 " stroke="#ffffff" stroke-width="1" stroke-opacity="0.9412" stroke-miterlimit="4"/><path stroke-linecap="butt" transform="matrix(0.438044, 0, 0, 0.439605, -3.618371, 15.143224)" fill="none" stroke-linejoin="miter" d="M 51.331748 216.328391 L 148.862288 219.242941 C 153.766905 202.448732 160.802801 186.720821 168.266737 171.20617 L 82.872895 163.928679 C 65.260861 187.609403 58.991868 201.355775 51.331748 216.328391 Z M 51.331748 216.328391 " stroke="#ffffff" stroke-width="1" stroke-opacity="0.9412" stroke-miterlimit="4"/><path stroke-linecap="butt" transform="matrix(0.438044, 0, 0, 0.439605, -3.618371, 15.143224)" fill="none" stroke-linejoin="miter" d="M 85.788913 159.077018 L 170.210749 166.354509 C 181.91049 145.197359 198.64861 135.289664 210.482114 126.572669 L 147.890282 116.869348 C 128.824698 122.59182 97.328139 145.561678 85.788913 159.077018 Z M 85.788913 159.077018 " stroke="#ffffff" stroke-width="1" stroke-opacity="0.9412" stroke-miterlimit="4"/><path stroke-linecap="butt" transform="matrix(0.438044, 0, 0, 0.439605, -3.618371, 15.143224)" fill="none" stroke-linejoin="miter" d="M 156.058699 114.443518 L 214.280963 124.626674 C 235.691846 118.513226 234.960612 116.362856 265.71702 120.743568 L 220.104081 110.071692 C 201.038496 110.942503 180.697712 109.174223 156.058699 114.443518 Z M 156.058699 114.443518 " stroke="#ffffff" stroke-width="1" stroke-opacity="0.9412" stroke-miterlimit="4"/><path stroke-linecap="butt" transform="matrix(0.438044, 0, 0, 0.439605, -3.618371, 15.143224)" fill="none" stroke-linejoin="miter" d="M 237.653692 110.071692 L 289.080832 125.595229 C 321.674242 131.246614 332.241462 131.459873 351.191119 115.403187 L 303.152624 100.368371 C 289.277017 109.849546 269.587208 114.772293 237.653692 110.071692 Z M 237.653692 110.071692 " stroke="#ffffff" stroke-width="1" stroke-opacity="1" stroke-miterlimit="4"/><path stroke-linecap="butt" transform="matrix(0.438044, 0, 0, 0.439605, -3.618371, 15.143224)" fill="none" stroke-linejoin="miter" d="M 306.550186 97.45382 L 354.588681 112.017688 C 363.024622 101.958933 370.158611 87.866014 374.474674 71.258407 L 325.954635 65.438191 C 321.451305 79.033504 318.463947 85.004779 306.550186 97.462706 Z M 306.550186 97.45382 " stroke="#ffffff" stroke-width="1" stroke-opacity="0.9412" stroke-miterlimit="4"/><path stroke-linecap="butt" transform="matrix(0.438044, 0, 0, 0.439605, -3.618371, 15.143224)" fill="none" stroke-linejoin="miter" d="M 327.417102 60.577645 L 375.937142 64.949471 C 381.037943 47.097848 382.92845 33.529193 384.185816 20.795805 L 333.240221 21.27564 C 332.526822 35.608476 330.72549 48.83947 327.417102 60.577645 Z M 327.417102 60.577645 " stroke="#ffffff" stroke-width="1" stroke-opacity="1" stroke-miterlimit="4"/><g fill="#004aad" fill-opacity="0.4"><g transform="translate(19.419196, 80.832168)"><g><path d="M -6.53125 -10.5625 L -9.171875 -13.75 C -11.628906 -16.71875 -12.734375 -19.84375 -12.484375 -23.125 C -12.234375 -26.414062 -10.359375 -29.515625 -6.859375 -32.421875 C -4.609375 -34.285156 -2.40625 -35.460938 -0.25 -35.953125 C 1.894531 -36.441406 3.40625 -36.15625 4.28125 -35.09375 C 4.925781 -34.3125 5.304688 -33.296875 5.421875 -32.046875 C 5.535156 -30.796875 5.203125 -29.847656 4.421875 -29.203125 C 4.171875 -28.992188 3.441406 -28.707031 2.234375 -28.34375 C 1.035156 -27.976562 -0.046875 -27.394531 -1.015625 -26.59375 C -3.609375 -24.445312 -3.90625 -22.171875 -1.90625 -19.765625 L 0.734375 -16.578125 C 2.722656 -14.171875 5.03125 -14.054688 7.65625 -16.234375 C 8.59375 -17.003906 9.316406 -17.957031 9.828125 -19.09375 C 10.335938 -20.226562 10.75 -20.925781 11.0625 -21.1875 C 11.96875 -21.9375 13.019531 -22.175781 14.21875 -21.90625 C 15.425781 -21.632812 16.363281 -21.09375 17.03125 -20.28125 C 17.9375 -19.1875 17.9375 -17.5625 17.03125 -15.40625 C 16.125 -13.257812 14.5625 -11.269531 12.34375 -9.4375 C 8.78125 -6.476562 5.363281 -5.175781 2.09375 -5.53125 C -1.175781 -5.882812 -4.050781 -7.5625 -6.53125 -10.5625 Z M -6.53125 -10.5625 "/></g></g></g><g fill="#004aad" fill-opacity="0.4"><g transform="translate(36.694903, 66.696902)"><g><path d="M -13.796875 -33.359375 C -15.066406 -33.648438 -15.984375 -34.3125 -16.546875 -35.34375 C -17.109375 -36.375 -17.164062 -37.5 -16.71875 -38.71875 C -16.28125 -39.9375 -15.457031 -40.875 -14.25 -41.53125 C -13.070312 -42.175781 -11.847656 -42.359375 -10.578125 -42.078125 C -9.316406 -41.796875 -8.40625 -41.140625 -7.84375 -40.109375 C -7.28125 -39.078125 -7.21875 -37.945312 -7.65625 -36.71875 C -8.09375 -35.488281 -8.898438 -34.550781 -10.078125 -33.90625 C -11.285156 -33.25 -12.523438 -33.066406 -13.796875 -33.359375 Z M 1 -3.875 L -10.125 -24.21875 C -10.53125 -24.96875 -10.476562 -25.785156 -9.96875 -26.671875 C -9.457031 -27.554688 -8.597656 -28.328125 -7.390625 -28.984375 C -6.210938 -29.628906 -5.097656 -29.9375 -4.046875 -29.90625 C -2.992188 -29.882812 -2.265625 -29.5 -1.859375 -28.75 L 9.265625 -8.40625 C 9.617188 -7.769531 9.53125 -6.957031 9 -5.96875 C 8.476562 -4.988281 7.648438 -4.1875 6.515625 -3.5625 C 5.335938 -2.914062 4.21875 -2.632812 3.15625 -2.71875 C 2.09375 -2.8125 1.375 -3.195312 1 -3.875 Z M 1 -3.875 "/></g></g></g><g fill="#004aad" fill-opacity="0.4"><g transform="translate(44.615599, 60.646144)"><g><path d="M 1.8125 -3.578125 L -4.671875 -25.828125 C -4.910156 -26.648438 -4.679688 -27.4375 -3.984375 -28.1875 C -3.296875 -28.9375 -2.289062 -29.503906 -0.96875 -29.890625 C 0.125 -30.203125 1.132812 -30.21875 2.0625 -29.9375 C 2.988281 -29.664062 3.570312 -29.117188 3.8125 -28.296875 L 4.203125 -26.96875 C 4.460938 -28.382812 5.15625 -29.722656 6.28125 -30.984375 C 7.414062 -32.253906 8.898438 -33.15625 10.734375 -33.6875 C 13.421875 -34.46875 16.097656 -33.9375 18.765625 -32.09375 C 21.441406 -30.25 23.269531 -27.65625 24.25 -24.3125 L 28.0625 -11.21875 C 28.320312 -10.3125 28.070312 -9.484375 27.3125 -8.734375 C 26.550781 -7.992188 25.550781 -7.441406 24.3125 -7.078125 C 23.144531 -6.734375 22.03125 -6.679688 20.96875 -6.921875 C 19.90625 -7.160156 19.25 -7.710938 19 -8.578125 L 15.1875 -21.671875 C 14.851562 -22.796875 14.132812 -23.679688 13.03125 -24.328125 C 11.9375 -24.984375 10.828125 -25.148438 9.703125 -24.828125 C 8.691406 -24.523438 7.898438 -23.859375 7.328125 -22.828125 C 6.765625 -21.796875 6.675781 -20.625 7.0625 -19.3125 L 10.875 -6.21875 C 11.070312 -5.507812 10.796875 -4.726562 10.046875 -3.875 C 9.304688 -3.03125 8.332031 -2.429688 7.125 -2.078125 C 5.84375 -1.703125 4.6875 -1.671875 3.65625 -1.984375 C 2.632812 -2.296875 2.019531 -2.828125 1.8125 -3.578125 Z M 1.8125 -3.578125 "/></g></g></g><g fill="#004aad" fill-opacity="0.4"><g transform="translate(69.217494, 52.65749)"><g><path d="M 1.6875 -12.296875 L 1.71875 -16.734375 C 1.726562 -20.191406 3.109375 -23.148438 5.859375 -25.609375 C 8.609375 -28.066406 11.910156 -29.289062 15.765625 -29.28125 C 19.378906 -29.257812 22.457031 -28.15625 25 -25.96875 C 27.550781 -23.789062 28.820312 -21.019531 28.8125 -17.65625 C 28.800781 -16.351562 28.632812 -15.296875 28.3125 -14.484375 C 27.988281 -13.671875 27.5 -13.101562 26.84375 -12.78125 C 26.1875 -12.46875 25.582031 -12.257812 25.03125 -12.15625 C 24.488281 -12.050781 23.769531 -12.003906 22.875 -12.015625 L 11.125 -12.0625 L 11.125 -11.703125 C 11.125 -10.203125 11.6875 -8.988281 12.8125 -8.0625 C 13.945312 -7.144531 15.445312 -6.679688 17.3125 -6.671875 C 18.738281 -6.671875 20.234375 -7.039062 21.796875 -7.78125 C 23.367188 -8.53125 24.414062 -8.90625 24.9375 -8.90625 C 25.957031 -8.90625 26.789062 -8.421875 27.4375 -7.453125 C 28.082031 -6.492188 28.398438 -5.59375 28.390625 -4.75 C 28.390625 -3.488281 27.300781 -2.265625 25.125 -1.078125 C 22.945312 0.109375 20.253906 0.695312 17.046875 0.6875 C 12.503906 0.664062 8.804688 -0.535156 5.953125 -2.921875 C 3.097656 -5.316406 1.675781 -8.441406 1.6875 -12.296875 Z M 9.171875 -37.515625 C 9.179688 -38.523438 9.59375 -39.234375 10.40625 -39.640625 L 18.9375 -43.5625 C 19.257812 -43.6875 19.546875 -43.75 19.796875 -43.75 C 20.566406 -43.738281 21.234375 -43.359375 21.796875 -42.609375 C 22.367188 -41.859375 22.648438 -41.054688 22.640625 -40.203125 C 22.640625 -39.234375 22.234375 -38.546875 21.421875 -38.140625 L 12.875 -34.203125 C 12.457031 -34.054688 12.148438 -33.984375 11.953125 -33.984375 C 11.179688 -33.984375 10.523438 -34.359375 9.984375 -35.109375 C 9.441406 -35.859375 9.171875 -36.660156 9.171875 -37.515625 Z M 11.15625 -17.359375 L 18.703125 -17.328125 C 19.554688 -17.316406 19.984375 -17.800781 19.984375 -18.78125 C 19.992188 -19.914062 19.5625 -20.8125 18.6875 -21.46875 C 17.8125 -22.125 16.769531 -22.457031 15.5625 -22.46875 C 14.382812 -22.46875 13.359375 -22.144531 12.484375 -21.5 C 11.609375 -20.851562 11.164062 -19.960938 11.15625 -18.828125 Z M 11.15625 -17.359375 "/></g></g></g><g clip-path="url(#id9)"><g fill="#ffffff" fill-opacity="1"><g transform="translate(15.991999, 79.180349)"><g><path d="M -6.53125 -10.5625 L -9.171875 -13.75 C -11.628906 -16.71875 -12.734375 -19.84375 -12.484375 -23.125 C -12.234375 -26.414062 -10.359375 -29.515625 -6.859375 -32.421875 C -4.609375 -34.285156 -2.40625 -35.460938 -0.25 -35.953125 C 1.894531 -36.441406 3.40625 -36.15625 4.28125 -35.09375 C 4.925781 -34.3125 5.304688 -33.296875 5.421875 -32.046875 C 5.535156 -30.796875 5.203125 -29.847656 4.421875 -29.203125 C 4.171875 -28.992188 3.441406 -28.707031 2.234375 -28.34375 C 1.035156 -27.976562 -0.046875 -27.394531 -1.015625 -26.59375 C -3.609375 -24.445312 -3.90625 -22.171875 -1.90625 -19.765625 L 0.734375 -16.578125 C 2.722656 -14.171875 5.03125 -14.054688 7.65625 -16.234375 C 8.59375 -17.003906 9.316406 -17.957031 9.828125 -19.09375 C 10.335938 -20.226562 10.75 -20.925781 11.0625 -21.1875 C 11.96875 -21.9375 13.019531 -22.175781 14.21875 -21.90625 C 15.425781 -21.632812 16.363281 -21.09375 17.03125 -20.28125 C 17.9375 -19.1875 17.9375 -17.5625 17.03125 -15.40625 C 16.125 -13.257812 14.5625 -11.269531 12.34375 -9.4375 C 8.78125 -6.476562 5.363281 -5.175781 2.09375 -5.53125 C -1.175781 -5.882812 -4.050781 -7.5625 -6.53125 -10.5625 Z M -6.53125 -10.5625 "/></g></g></g></g><g fill="#ffffff" fill-opacity="1"><g transform="translate(33.267706, 65.045084)"><g><path d="M -13.796875 -33.359375 C -15.066406 -33.648438 -15.984375 -34.3125 -16.546875 -35.34375 C -17.109375 -36.375 -17.164062 -37.5 -16.71875 -38.71875 C -16.28125 -39.9375 -15.457031 -40.875 -14.25 -41.53125 C -13.070312 -42.175781 -11.847656 -42.359375 -10.578125 -42.078125 C -9.316406 -41.796875 -8.40625 -41.140625 -7.84375 -40.109375 C -7.28125 -39.078125 -7.21875 -37.945312 -7.65625 -36.71875 C -8.09375 -35.488281 -8.898438 -34.550781 -10.078125 -33.90625 C -11.285156 -33.25 -12.523438 -33.066406 -13.796875 -33.359375 Z M 1 -3.875 L -10.125 -24.21875 C -10.53125 -24.96875 -10.476562 -25.785156 -9.96875 -26.671875 C -9.457031 -27.554688 -8.597656 -28.328125 -7.390625 -28.984375 C -6.210938 -29.628906 -5.097656 -29.9375 -4.046875 -29.90625 C -2.992188 -29.882812 -2.265625 -29.5 -1.859375 -28.75 L 9.265625 -8.40625 C 9.617188 -7.769531 9.53125 -6.957031 9 -5.96875 C 8.476562 -4.988281 7.648438 -4.1875 6.515625 -3.5625 C 5.335938 -2.914062 4.21875 -2.632812 3.15625 -2.71875 C 2.09375 -2.8125 1.375 -3.195312 1 -3.875 Z M 1 -3.875 "/></g></g></g><g fill="#ffffff" fill-opacity="1"><g transform="translate(41.188401, 58.994326)"><g><path d="M 1.8125 -3.578125 L -4.671875 -25.828125 C -4.910156 -26.648438 -4.679688 -27.4375 -3.984375 -28.1875 C -3.296875 -28.9375 -2.289062 -29.503906 -0.96875 -29.890625 C 0.125 -30.203125 1.132812 -30.21875 2.0625 -29.9375 C 2.988281 -29.664062 3.570312 -29.117188 3.8125 -28.296875 L 4.203125 -26.96875 C 4.460938 -28.382812 5.15625 -29.722656 6.28125 -30.984375 C 7.414062 -32.253906 8.898438 -33.15625 10.734375 -33.6875 C 13.421875 -34.46875 16.097656 -33.9375 18.765625 -32.09375 C 21.441406 -30.25 23.269531 -27.65625 24.25 -24.3125 L 28.0625 -11.21875 C 28.320312 -10.3125 28.070312 -9.484375 27.3125 -8.734375 C 26.550781 -7.992188 25.550781 -7.441406 24.3125 -7.078125 C 23.144531 -6.734375 22.03125 -6.679688 20.96875 -6.921875 C 19.90625 -7.160156 19.25 -7.710938 19 -8.578125 L 15.1875 -21.671875 C 14.851562 -22.796875 14.132812 -23.679688 13.03125 -24.328125 C 11.9375 -24.984375 10.828125 -25.148438 9.703125 -24.828125 C 8.691406 -24.523438 7.898438 -23.859375 7.328125 -22.828125 C 6.765625 -21.796875 6.675781 -20.625 7.0625 -19.3125 L 10.875 -6.21875 C 11.070312 -5.507812 10.796875 -4.726562 10.046875 -3.875 C 9.304688 -3.03125 8.332031 -2.429688 7.125 -2.078125 C 5.84375 -1.703125 4.6875 -1.671875 3.65625 -1.984375 C 2.632812 -2.296875 2.019531 -2.828125 1.8125 -3.578125 Z M 1.8125 -3.578125 "/></g></g></g><g fill="#ffffff" fill-opacity="1"><g transform="translate(65.790307, 51.005672)"><g><path d="M 1.6875 -12.296875 L 1.71875 -16.734375 C 1.726562 -20.191406 3.109375 -23.148438 5.859375 -25.609375 C 8.609375 -28.066406 11.910156 -29.289062 15.765625 -29.28125 C 19.378906 -29.257812 22.457031 -28.15625 25 -25.96875 C 27.550781 -23.789062 28.820312 -21.019531 28.8125 -17.65625 C 28.800781 -16.351562 28.632812 -15.296875 28.3125 -14.484375 C 27.988281 -13.671875 27.5 -13.101562 26.84375 -12.78125 C 26.1875 -12.46875 25.582031 -12.257812 25.03125 -12.15625 C 24.488281 -12.050781 23.769531 -12.003906 22.875 -12.015625 L 11.125 -12.0625 L 11.125 -11.703125 C 11.125 -10.203125 11.6875 -8.988281 12.8125 -8.0625 C 13.945312 -7.144531 15.445312 -6.679688 17.3125 -6.671875 C 18.738281 -6.671875 20.234375 -7.039062 21.796875 -7.78125 C 23.367188 -8.53125 24.414062 -8.90625 24.9375 -8.90625 C 25.957031 -8.90625 26.789062 -8.421875 27.4375 -7.453125 C 28.082031 -6.492188 28.398438 -5.59375 28.390625 -4.75 C 28.390625 -3.488281 27.300781 -2.265625 25.125 -1.078125 C 22.945312 0.109375 20.253906 0.695312 17.046875 0.6875 C 12.503906 0.664062 8.804688 -0.535156 5.953125 -2.921875 C 3.097656 -5.316406 1.675781 -8.441406 1.6875 -12.296875 Z M 9.171875 -37.515625 C 9.179688 -38.523438 9.59375 -39.234375 10.40625 -39.640625 L 18.9375 -43.5625 C 19.257812 -43.6875 19.546875 -43.75 19.796875 -43.75 C 20.566406 -43.738281 21.234375 -43.359375 21.796875 -42.609375 C 22.367188 -41.859375 22.648438 -41.054688 22.640625 -40.203125 C 22.640625 -39.234375 22.234375 -38.546875 21.421875 -38.140625 L 12.875 -34.203125 C 12.457031 -34.054688 12.148438 -33.984375 11.953125 -33.984375 C 11.179688 -33.984375 10.523438 -34.359375 9.984375 -35.109375 C 9.441406 -35.859375 9.171875 -36.660156 9.171875 -37.515625 Z M 11.15625 -17.359375 L 18.703125 -17.328125 C 19.554688 -17.316406 19.984375 -17.800781 19.984375 -18.78125 C 19.992188 -19.914062 19.5625 -20.8125 18.6875 -21.46875 C 17.8125 -22.125 16.769531 -22.457031 15.5625 -22.46875 C 14.382812 -22.46875 13.359375 -22.144531 12.484375 -21.5 C 11.609375 -20.851562 11.164062 -19.960938 11.15625 -18.828125 Z M 11.15625 -17.359375 "/></g></g></g><g fill="#004aad" fill-opacity="0.4"><g transform="translate(90.355438, 129.040062)"><g><path d="M 2.9375 -2.5625 L 2.9375 -37.28125 C 2.9375 -37.96875 3.28125 -38.566406 3.96875 -39.078125 C 4.664062 -39.585938 5.5625 -39.84375 6.65625 -39.84375 L 16.296875 -39.84375 C 20.367188 -39.84375 23.617188 -38.804688 26.046875 -36.734375 C 28.484375 -34.660156 29.703125 -31.410156 29.703125 -26.984375 L 29.703125 -12.859375 C 29.703125 -8.429688 28.484375 -5.179688 26.046875 -3.109375 C 23.617188 -1.035156 20.367188 0 16.296875 0 L 6.65625 0 C 5.5625 0 4.664062 -0.253906 3.96875 -0.765625 C 3.28125 -1.273438 2.9375 -1.875 2.9375 -2.5625 Z M 11.4375 -7.40625 L 16.296875 -7.40625 C 19.566406 -7.40625 21.203125 -9.222656 21.203125 -12.859375 L 21.203125 -26.984375 C 21.203125 -30.609375 19.566406 -32.421875 16.296875 -32.421875 L 11.4375 -32.421875 Z M 11.4375 -7.40625 "/></g></g></g><g fill="#004aad" fill-opacity="0.4"><g transform="translate(122.503521, 129.040062)"><g><path d="M 2.9375 -2.5625 L 2.9375 -37.21875 C 2.9375 -38.0625 3.300781 -38.707031 4.03125 -39.15625 C 4.757812 -39.613281 5.632812 -39.84375 6.65625 -39.84375 L 17.828125 -39.84375 C 25.085938 -39.84375 28.71875 -36.609375 28.71875 -30.140625 C 28.71875 -25.773438 27.175781 -22.921875 24.09375 -21.578125 C 25.945312 -20.890625 27.34375 -19.898438 28.28125 -18.609375 C 29.226562 -17.316406 29.703125 -15.398438 29.703125 -12.859375 L 29.703125 -11.71875 C 29.703125 -7.644531 28.710938 -4.671875 26.734375 -2.796875 C 24.753906 -0.929688 22.09375 0 18.75 0 L 6.65625 0 C 5.519531 0 4.613281 -0.253906 3.9375 -0.765625 C 3.269531 -1.273438 2.9375 -1.875 2.9375 -2.5625 Z M 11.390625 -7.40625 L 16.84375 -7.40625 C 19.75 -7.40625 21.203125 -9.078125 21.203125 -12.421875 L 21.203125 -13.296875 C 21.203125 -16.640625 19.75 -18.3125 16.84375 -18.3125 L 11.390625 -18.3125 Z M 11.390625 -24.859375 L 17.109375 -24.859375 C 18.085938 -24.859375 18.847656 -25.226562 19.390625 -25.96875 C 19.941406 -26.71875 20.21875 -27.597656 20.21875 -28.609375 C 20.21875 -29.628906 19.941406 -30.519531 19.390625 -31.28125 C 18.847656 -32.039062 18.085938 -32.421875 17.109375 -32.421875 L 11.390625 -32.421875 Z M 11.390625 -24.859375 "/></g></g></g><g fill="#ffffff" fill-opacity="1"><g transform="translate(87.946975, 126.631599)"><g><path d="M 2.9375 -2.5625 L 2.9375 -37.28125 C 2.9375 -37.96875 3.28125 -38.566406 3.96875 -39.078125 C 4.664062 -39.585938 5.5625 -39.84375 6.65625 -39.84375 L 16.296875 -39.84375 C 20.367188 -39.84375 23.617188 -38.804688 26.046875 -36.734375 C 28.484375 -34.660156 29.703125 -31.410156 29.703125 -26.984375 L 29.703125 -12.859375 C 29.703125 -8.429688 28.484375 -5.179688 26.046875 -3.109375 C 23.617188 -1.035156 20.367188 0 16.296875 0 L 6.65625 0 C 5.5625 0 4.664062 -0.253906 3.96875 -0.765625 C 3.28125 -1.273438 2.9375 -1.875 2.9375 -2.5625 Z M 11.4375 -7.40625 L 16.296875 -7.40625 C 19.566406 -7.40625 21.203125 -9.222656 21.203125 -12.859375 L 21.203125 -26.984375 C 21.203125 -30.609375 19.566406 -32.421875 16.296875 -32.421875 L 11.4375 -32.421875 Z M 11.4375 -7.40625 "/></g></g></g><g fill="#ffffff" fill-opacity="1"><g transform="translate(120.095057, 126.631599)"><g><path d="M 2.9375 -2.5625 L 2.9375 -37.21875 C 2.9375 -38.0625 3.300781 -38.707031 4.03125 -39.15625 C 4.757812 -39.613281 5.632812 -39.84375 6.65625 -39.84375 L 17.828125 -39.84375 C 25.085938 -39.84375 28.71875 -36.609375 28.71875 -30.140625 C 28.71875 -25.773438 27.175781 -22.921875 24.09375 -21.578125 C 25.945312 -20.890625 27.34375 -19.898438 28.28125 -18.609375 C 29.226562 -17.316406 29.703125 -15.398438 29.703125 -12.859375 L 29.703125 -11.71875 C 29.703125 -7.644531 28.710938 -4.671875 26.734375 -2.796875 C 24.753906 -0.929688 22.09375 0 18.75 0 L 6.65625 0 C 5.519531 0 4.613281 -0.253906 3.9375 -0.765625 C 3.269531 -1.273438 2.9375 -1.875 2.9375 -2.5625 Z M 11.390625 -7.40625 L 16.84375 -7.40625 C 19.75 -7.40625 21.203125 -9.078125 21.203125 -12.421875 L 21.203125 -13.296875 C 21.203125 -16.640625 19.75 -18.3125 16.84375 -18.3125 L 11.390625 -18.3125 Z M 11.390625 -24.859375 L 17.109375 -24.859375 C 18.085938 -24.859375 18.847656 -25.226562 19.390625 -25.96875 C 19.941406 -26.71875 20.21875 -27.597656 20.21875 -28.609375 C 20.21875 -29.628906 19.941406 -30.519531 19.390625 -31.28125 C 18.847656 -32.039062 18.085938 -32.421875 17.109375 -32.421875 L 11.390625 -32.421875 Z M 11.390625 -24.859375 "/></g></g></g></svg>